<svg width="128" height="128" viewBox="0 0 128 128" fill="none" xmlns="http://www.w3.org/2000/svg">
<rect width="128" height="128" rx="27" fill="#1C1A1A"/>
<path fill-rule="evenodd" clip-rule="evenodd" d="M49.9388 27.311C49.3326 27.4691 48.6857 27.347 48.1873 26.9673L39.5823 20.4118C38.3264 19.455 36.5091 20.2624 36.3773 21.8357L35.4957 32.3577C35.4422 32.9966 35.084 33.569 34.5421 33.9116C26.5502 38.9647 20.5911 45.9315 17.7848 53.9297C17.4924 54.7632 16.7196 55.3449 15.8362 55.3449H11C9.89543 55.3449 9 56.2403 9 57.3449V72.3449C9 73.4495 9.89543 74.3449 11 74.3449H16.204C17.0633 74.3449 17.8209 74.896 18.13 75.6978C20.0583 80.6987 23.2274 85.2741 27.3548 89.2016C27.7618 89.5888 28 90.1231 28 90.6849V105.345C28 106.449 28.8954 107.345 30 107.345H41C42.1046 107.345 43 106.449 43 105.345V102.054C43 100.637 44.4346 99.6662 45.775 100.126C51.8186 102.197 58.4891 103.345 65.5 103.345C72.5109 103.345 79.1814 102.197 85.225 100.126C86.5654 99.6662 88 100.637 88 102.054V105.345C88 106.449 88.8954 107.345 90 107.345H101C102.105 107.345 103 106.449 103 105.345V90.6849C103 90.1231 103.238 89.5889 103.645 89.2016C110.737 82.453 115 73.7912 115 64.3449C115 59.3002 113.784 54.4793 111.571 50.054C111.098 49.1083 111.381 47.9513 112.222 47.3099C113.797 46.1077 115.322 44.6343 116.446 42.8859C117.641 41.0267 118.28 39.545 118.569 38.1948C118.86 36.8369 118.771 35.7157 118.678 34.7064C118.299 30.6259 115.637 27.8449 112.184 27.8449C110.272 27.8449 108.64 29.1302 107.594 30.3846C106.544 31.6452 105.684 33.3521 105.684 34.8449C105.684 35.8989 105.802 37.0131 106.35 37.8899C106.999 38.9292 108.048 39.3449 109.184 39.3449C110.237 39.3449 111.209 39.0029 111.856 38.7156C112.192 38.5661 112.472 38.4169 112.671 38.3035C112.77 38.2465 112.851 38.1978 112.909 38.1615C112.938 38.1433 112.962 38.1282 112.98 38.1166L113.003 38.1019L113.011 38.0967L113.014 38.0947L113.015 38.0938L113.016 38.0934C113.016 38.0932 113.016 38.093 112.184 36.8449C111.352 35.5968 111.352 35.5966 111.353 35.5965L111.353 35.5961L111.354 35.5957C111.349 35.5988 111.339 35.6051 111.324 35.6143C111.295 35.6327 111.247 35.662 111.182 35.6988C111.053 35.7729 110.864 35.8737 110.637 35.9742C110.159 36.1869 109.632 36.3449 109.184 36.3449C109.03 36.3449 108.948 36.3261 108.913 36.3152C108.905 36.3126 108.898 36.3072 108.894 36.2999V36.2999C108.866 36.2559 108.808 36.1362 108.76 35.881C108.713 35.6275 108.684 35.2893 108.684 34.8449C108.684 34.3377 109.075 33.2946 109.899 32.3052C110.729 31.3096 111.597 30.8449 112.184 30.8449C113.732 30.8449 115.42 32.0639 115.691 34.9834C115.781 35.9534 115.825 36.6852 115.636 37.5665C115.445 38.4553 114.993 39.5989 113.922 41.2636C113.08 42.5734 111.925 43.7253 110.683 44.707C109.828 45.3823 108.604 45.1291 107.942 44.2637C99.2836 32.9278 83.5158 25.3449 65.5 25.3449C60.0637 25.3449 54.8321 26.0354 49.9388 27.311ZM41 48.3449C41 51.1063 38.7614 53.3449 36 53.3449C33.2386 53.3449 31 51.1063 31 48.3449C31 45.5835 33.2386 43.3449 36 43.3449C38.7614 43.3449 41 45.5835 41 48.3449ZM46.6416 38.2008C46.6418 38.2007 46.642 38.2006 46.6421 38.2005L46.6416 38.2008ZM46.6421 38.2005L46.6441 38.1996L46.6596 38.1923C46.6745 38.1854 46.6984 38.1744 46.7311 38.1595C46.7964 38.1298 46.8967 38.0847 47.0301 38.0265C47.2972 37.9101 47.6967 37.7413 48.2141 37.5373C49.2495 37.1292 50.7542 36.5818 52.612 36.0336C56.3352 34.9349 61.4368 33.8449 67 33.8449C72.5632 33.8449 77.6648 34.9349 81.388 36.0336C83.2458 36.5818 84.7505 37.1292 85.7859 37.5373C86.3033 37.7413 86.7029 37.9101 86.9699 38.0265C87.1033 38.0847 87.2036 38.1298 87.2689 38.1595C87.3016 38.1744 87.3255 38.1854 87.3404 38.1923L87.3559 38.1996L87.3579 38.2005C87.358 38.2006 87.3582 38.2007 87.3584 38.2008M87.3584 38.2008C88.107 38.555 89.001 38.2355 89.3556 37.487C89.7102 36.7384 89.3908 35.8439 88.6421 35.4893L88.0127 36.8181C88.6421 35.4893 88.6418 35.4891 88.6414 35.489L88.6405 35.4885L88.6379 35.4873L88.6302 35.4837L88.6044 35.4717C88.5827 35.4616 88.5518 35.4473 88.5121 35.4292C88.4326 35.393 88.3176 35.3414 88.1688 35.2766C87.8714 35.1469 87.4389 34.9642 86.886 34.7463C85.7807 34.3106 84.1917 33.733 82.237 33.1562C78.3352 32.0049 72.9368 30.8449 67 30.8449C61.0632 30.8449 55.6648 32.0049 51.763 33.1562C49.8083 33.733 48.2193 34.3106 47.114 34.7463C46.5611 34.9642 46.1286 35.1469 45.8312 35.2766C45.6824 35.3414 45.5674 35.393 45.4879 35.4292C45.4482 35.4473 45.4173 35.4616 45.3956 35.4717L45.3698 35.4837L45.3621 35.4873L45.3595 35.4885L45.3586 35.489C45.3582 35.4891 45.3579 35.4893 45.9874 36.8182L45.3579 35.4893C44.6092 35.8439 44.2898 36.7384 44.6444 37.487C44.999 38.2355 45.893 38.555 46.6416 38.2008" fill="#EA580C"/>
</svg>
